<svg xmlns="http://www.w3.org/2000/svg" width="300" height="300" viewBox="0 0 300 300" fill="none"><path d="M150.1 40C103.3 40 65.3 77.9 65.3 124.8C65.3 171.6 103.2 209.6 150.1 209.6C196.9 209.6 234.9 171.7 234.9 124.8C234.9 77.9 196.9 40 150.1 40Z" fill="#FFF6E1"></path><path d="M88.6 258.8H68.5C62.2 258.8 57 253.6 57 247.3V161.1C57 154.8 62.2 149.6 68.5 149.6H88.6C94.9 149.6 100.1 154.8 100.1 161.1V247.2C100.2 253.6 95 258.8 88.6 258.8Z" fill="#00245E"></path><path d="M160.2 260.1H140.1C133.8 260.1 128.6 254.9 128.6 248.6V115.7C128.6 109.4 133.8 104.2 140.1 104.2H160.2C166.5 104.2 171.7 109.4 171.7 115.7V248.6C171.7 254.9 166.5 260.1 160.2 260.1Z" fill="#00B2A3"></path><path d="M231.7 260.1H211.6C205.3 260.1 200.1 254.9 200.1 248.6V67.1C200.1 60.8 205.3 55.6 211.6 55.6H231.7C238 55.6 243.2 60.8 243.2 67.1V248.5C243.2 254.9 238 260.1 231.7 260.1Z" fill="#FFD16B"></path></svg>