<svg xmlns="http://www.w3.org/2000/svg" width="300" height="300" viewBox="0 0 300 300" fill="none"><path d="M149.8 36C103 36 65 73.9 65 120.8C65 167.6 102.9 205.6 149.8 205.6C196.6 205.6 234.6 167.7 234.6 120.8C234.5 74 196.6 36 149.8 36Z" fill="#FFF6E1"></path><path d="M189.7 142C193.9 137.8 196.2 132.2 196.2 126.3V94.1C196.2 92.1 194.6 90.4 192.5 90.4H103.9C101.9 90.4 100.2 92 100.2 94.1V126.4C100.2 132.3 102.5 137.9 106.7 142L131.4 166.7C132.8 168.1 132.8 170.5 131.4 171.9L106.7 196.7C102.6 200.8 100.2 206.5 100.2 212.3V244.5C100.2 246.5 101.8 248.2 103.9 248.2H192.5C194.5 248.2 196.2 246.6 196.2 244.5V212.2C196.2 206.3 193.9 200.7 189.7 196.6L165 171.9C163.6 170.5 163.6 168.1 165 166.7L189.7 142Z" fill="#00B2A3"></path><path d="M121.3 252.5V217.6C121.3 215.9 122 214.3 123.2 213.1L140.7 195.6C144.9 191.4 151.6 191.4 155.8 195.6L173.4 213.2C174.6 214.4 175.3 216 175.3 217.7V252.5H121.3Z" fill="#FFD16B"></path><path d="M200.7 92.7H94.4C89.3 92.7 85.1 88.5 85.1 83.4C85.1 78.3 89.3 74.1 94.4 74.1H200.7C205.8 74.1 210 78.3 210 83.4C210 88.5 205.8 92.7 200.7 92.7Z" fill="#00245E"></path><path d="M200.7 264.5H94.4C89.3 264.5 85.1 260.3 85.1 255.2C85.1 250.1 89.3 245.9 94.4 245.9H200.7C205.8 245.9 210 250.1 210 255.2C210 260.3 205.8 264.5 200.7 264.5Z" fill="#00245E"></path><path d="M124.3 126.8H172.2C173.3 126.8 173.9 128.1 173.1 128.9L154.3 147.7C151 151 145.6 151 142.3 147.7L123.5 128.9C122.6 128.2 123.1 126.8 124.3 126.8Z" fill="#FFD16B"></path></svg>