<svg xmlns="http://www.w3.org/2000/svg" width="300" height="300" viewBox="0 0 300 300" fill="none"><path d="M181.075 35C134.275 35 96.275 72.9 96.275 119.8C96.275 166.6 134.175 204.6 181.075 204.6C227.875 204.6 265.875 166.7 265.875 119.8C265.875 72.9 227.875 35 181.075 35Z" fill="#FFF6E1"></path><path d="M213.675 170.4V100.8C213.675 92.1 206.675 85.1 197.975 85.1H128.375C124.175 85.1 120.175 86.8 117.275 89.7L38.575 168.4C32.475 174.5 32.475 184.5 38.575 190.6L108.275 260.3C114.375 266.4 124.375 266.4 130.475 260.3L209.175 181.5C211.975 178.6 213.675 174.6 213.675 170.4Z" fill="#00B2A3"></path><path d="M67.7993 139.067L49.7683 157.098L141.621 248.95L159.652 230.919L67.7993 139.067Z" fill="#00245E"></path><path d="M172.775 138C172.775 146.7 165.775 153.7 157.075 153.7C148.375 153.7 141.375 146.7 141.375 138C141.375 129.3 148.375 122.3 157.075 122.3C165.775 122.2 172.775 129.3 172.775 138Z" fill="#FFD16B"></path></svg>