<svg xmlns="http://www.w3.org/2000/svg" width="300" height="300" viewBox="0 0 300 300" fill="none"><path d="M100.8 51C54 51 16 88.9 16 135.8C16 182.6 53.9 220.6 100.8 220.6C147.6 220.6 185.6 182.7 185.6 135.8C185.5 88.9 147.6 51 100.8 51Z" fill="#FFF6E1"></path><path d="M270.2 248.3H74.7001C67.2001 248.3 61.1001 242.2 61.1001 234.7V105.4C61.1001 97.9 67.2001 91.8 74.7001 91.8H270.2C277.7 91.8 283.8 97.9 283.8 105.4V234.7C283.8 242.2 277.7 248.3 270.2 248.3Z" fill="#00B2A3"></path><path d="M283.8 128.1H61.1001V105.4C61.1001 97.9 67.2001 91.8 74.7001 91.8H270.2C277.7 91.8 283.8 97.9 283.8 105.4V128.1Z" fill="#00245E"></path><path d="M87.9001 111C87.9001 114.9 84.7001 118.1 80.8001 118.1C76.9001 118.1 73.7001 114.9 73.7001 111C73.7001 107.1 76.9001 103.9 80.8001 103.9C84.7001 103.9 87.9001 107 87.9001 111Z" fill="#FFD16B"></path><path d="M108.9 111C108.9 114.9 105.7 118.1 101.8 118.1C97.9001 118.1 94.7001 114.9 94.7001 111C94.7001 107.1 97.9001 103.9 101.8 103.9C105.7 103.9 108.9 107 108.9 111Z" fill="#00B2A3"></path><path d="M128.8 111C128.8 114.9 125.6 118.1 121.7 118.1C117.8 118.1 114.6 114.9 114.6 111C114.6 107.1 117.8 103.9 121.7 103.9C125.6 103.9 128.8 107 128.8 111Z" fill="#00B2A3"></path><path d="M84.8 176.5V159.7C84.8 154.4 89.1 150 94.5 150H246.4C251.7 150 256.1 154.3 256.1 159.7V176.5C256.1 181.8 251.8 186.2 246.4 186.2H94.4C89.1 186.1 84.8 181.8 84.8 176.5Z" fill="#00245E"></path><path d="M84.8 218.9V208.1C84.8 204.7 87.6 201.9 91 201.9H188.9C192.3 201.9 195.1 204.7 195.1 208.1V218.9C195.1 222.3 192.3 225.1 188.9 225.1H91C87.6 225.1 84.8 222.3 84.8 218.9Z" fill="#FFD16B"></path></svg>