<svg width="348" height="55" viewBox="0 0 348 55" fill="none" xmlns="http://www.w3.org/2000/svg">
<path d="M81.0181 40.938L81.0018 14.6555L86.2476 14.6531L86.2639 40.9357L81.0181 40.938Z" fill="#020203"/>
<path d="M114.979 14.6352L114.92 40.9177L109.976 40.9212L102.46 30.8263C101.856 30.0378 101.252 29.2128 100.648 28.349C100.043 27.4858 99.4768 26.6979 98.9478 25.984C98.4183 25.272 97.9656 24.671 97.663 24.2206L97.1725 23.5085H97.1341V24.1847L97.1358 26.0616C97.1358 26.8501 97.1364 27.7886 97.1376 28.8782C97.1382 29.9666 97.1393 31.1684 97.1399 32.482L97.1445 40.9299L91.8994 40.9322L91.8831 14.6878L96.8268 14.6855L104.494 24.9304C104.947 25.5307 105.476 26.244 106.081 27.0325C106.684 27.8204 107.251 28.5707 107.78 29.3222C108.309 30.0719 108.761 30.7105 109.14 31.2356L109.705 31.9859H109.744V31.2344L109.742 29.2823C109.742 28.4561 109.741 27.5177 109.74 26.4669C109.74 25.415 109.74 24.3266 109.738 23.237L109.733 14.6392L114.979 14.6352Z" fill="#020203"/>
<path d="M139.486 22.4312L139.373 22.5811C138.656 21.605 137.712 20.8177 136.504 20.2561C135.296 19.6928 134.05 19.3929 132.729 19.3941C131.484 19.3946 130.352 19.621 129.333 20.035C128.315 20.4483 127.447 21.0487 126.731 21.8007C126.014 22.5522 125.449 23.453 125.072 24.5055C124.695 25.5568 124.507 26.6829 124.508 27.9212C124.508 29.1984 124.736 30.3626 125.152 31.4134C125.568 32.4647 126.134 33.365 126.851 34.0782C127.569 34.7915 128.437 35.3536 129.456 35.7664C130.475 36.1786 131.569 36.365 132.74 36.3644C134.249 36.3638 135.645 35.9875 136.928 35.2737C138.21 34.5599 139.191 33.6203 139.832 32.456L145.116 33.842C144.55 35.0068 143.871 36.0588 143.042 36.9978C142.213 37.9362 141.27 38.7259 140.214 39.4027C139.157 40.0795 137.988 40.6046 136.743 40.9432C135.498 41.3201 134.177 41.5083 132.781 41.5089C130.894 41.5106 129.12 41.1731 127.46 40.5362C125.798 39.8612 124.364 38.9245 123.117 37.722C121.872 36.5219 120.89 35.0583 120.171 33.369C119.454 31.6791 119.113 29.8398 119.111 27.85C119.111 25.8596 119.486 24.0198 120.203 22.331C120.919 20.6405 121.899 19.1752 123.144 17.9734C124.389 16.7715 125.86 15.8313 127.52 15.1545C129.18 14.4777 130.953 14.1391 132.841 14.1373C134.161 14.1368 135.407 14.2855 136.614 14.6225C137.822 14.9606 138.917 15.4104 139.936 16.0102C140.956 16.6105 141.899 17.3238 142.73 18.1864C143.561 19.0496 144.278 19.9881 144.845 21.0382L139.486 22.4312Z" fill="#020203"/>
<path d="M163.445 40.9264L158.231 31.994H157.929L153.929 31.9963L153.935 40.9322L148.689 40.9351L148.673 14.6908L157.919 14.685C159.541 14.6844 161.014 14.8714 162.297 15.283C163.58 15.6952 164.675 16.295 165.543 17.0829C166.411 17.8714 167.092 18.8093 167.583 19.8983C168.074 20.9861 168.301 22.188 168.302 23.5016C168.303 25.3038 167.888 26.8432 167.021 28.1204C166.154 29.3981 164.909 30.3747 163.287 31.0145L169.331 40.9218L163.445 40.9264ZM153.926 27.2658L158.568 27.3382C159.285 27.3382 159.927 27.2247 160.455 26.9995C160.982 26.7743 161.435 26.4727 161.775 26.0975C162.115 25.7212 162.378 25.309 162.567 24.8575C162.756 24.4071 162.83 23.919 162.83 23.4304C162.83 22.9053 162.754 22.4173 162.565 21.9668C162.376 21.517 162.111 21.1036 161.771 20.7285C161.432 20.3533 160.978 20.0535 160.45 19.8283C159.922 19.603 159.318 19.4913 158.601 19.4913L153.921 19.4948L153.926 27.2658Z" fill="#020203"/>
<path d="M191.99 35.991L191.993 40.8721L173.086 40.8836L173.07 14.6011L191.75 14.5895L191.753 19.4705L178.319 19.4786L178.322 25.0729L188.926 25.0665L188.929 29.6471L178.325 29.6534L178.328 35.9986L191.99 35.991Z" fill="#020203"/>
<path d="M213.435 35.9036L202.001 35.91L200.042 40.905L194.381 40.9079L205.233 14.6572L210.177 14.6543L221.061 40.8923L215.4 40.8952L213.435 35.9036ZM211.696 31.2113L209.013 24.6421C208.862 24.267 208.71 23.8536 208.559 23.442C208.408 23.0286 208.294 22.6159 208.181 22.2401C208.068 21.865 207.954 21.5639 207.879 21.3387L207.766 20.9636H207.727L207.614 21.3017C207.54 21.5269 207.427 21.8279 207.313 22.2031C207.2 22.5794 207.087 22.9545 206.937 23.3679C206.785 23.7813 206.635 24.1935 206.484 24.5698L203.885 31.2171L211.696 31.2113Z" fill="#020203"/>
<path d="M236.978 22.5602H236.676C236.525 21.9222 236.26 21.3589 235.921 20.8703C235.581 20.3834 235.165 19.9706 234.713 19.6325C234.26 19.2956 233.731 19.0322 233.165 18.8822C232.598 18.7329 232.032 18.6576 231.466 18.6588C230.258 18.6593 229.316 18.9222 228.599 19.449C227.882 19.9753 227.542 20.6138 227.542 21.4023C227.543 21.928 227.732 22.3778 228.072 22.753C228.412 23.1281 228.865 23.4662 229.469 23.7661C230.073 24.066 230.753 24.3283 231.508 24.5911L233.885 25.3779C234.83 25.6772 235.811 26.0894 236.792 26.5398C237.774 26.9896 238.679 27.5147 239.472 28.1527C240.266 28.7907 240.908 29.541 241.399 30.4042C241.89 31.2674 242.155 32.2811 242.155 33.4448C242.155 34.6096 241.93 35.698 241.44 36.6741C240.95 37.6508 240.271 38.4763 239.404 39.1913C238.536 39.9046 237.481 40.4684 236.235 40.8448C234.99 41.2587 233.631 41.4468 232.122 41.4474C229.329 41.4492 227.028 40.7747 225.178 39.3494C223.328 37.924 222.043 36.0106 221.324 33.6075L226.38 32.2522C226.531 32.8525 226.758 33.4158 227.098 33.9792C227.438 34.5425 227.854 35.0293 228.344 35.4427C228.835 35.8549 229.439 36.1924 230.119 36.4558C230.799 36.7175 231.553 36.8304 232.383 36.8293C233.817 36.8287 234.911 36.527 235.628 35.9267C236.345 35.3252 236.721 34.5743 236.721 33.7111C236.72 33.0349 236.531 32.4716 236.115 32.0212C235.7 31.5714 235.172 31.1962 234.492 30.8581C233.813 30.5212 233.02 30.2201 232.152 29.9584C231.284 29.6968 230.377 29.3963 229.434 29.0588C228.642 28.7971 227.849 28.459 227.018 28.0838C226.188 27.7093 225.433 27.2589 224.753 26.6961C224.074 26.1328 223.507 25.4572 223.054 24.6699C222.6 23.8813 222.374 22.9047 222.373 21.741C222.372 20.7273 222.598 19.7512 223.089 18.8504C223.579 17.9484 224.257 17.1228 225.124 16.4079C225.992 15.6946 227.011 15.1307 228.18 14.7174C229.349 14.3034 230.632 14.1147 232.028 14.1135C233.274 14.1129 234.443 14.2999 235.538 14.638C236.633 14.975 237.614 15.4624 238.484 16.0999C239.351 16.7378 240.107 17.4881 240.711 18.3513C241.315 19.2145 241.769 20.153 242.033 21.1667L236.978 22.5602Z" fill="#020203"/>
<path d="M246.684 40.839L246.667 14.5564L248.102 14.5559L248.118 40.8384L246.684 40.839Z" fill="#020203"/>
<path d="M275.415 14.5397L275.393 40.8222L274.034 40.8228L259.154 20.8952C258.021 19.3564 257.265 18.2686 256.85 17.6683C256.434 17.0667 256.207 16.7669 256.17 16.7669H256.132V17.2549C256.132 17.593 256.132 18.0434 256.132 18.6067C256.133 19.17 256.133 19.8456 256.134 20.5965C256.134 21.348 256.135 22.1365 256.136 22.9997L256.146 40.7968L254.712 40.7985L254.696 14.5159L256.054 14.5154L270.86 34.293C271.955 35.7183 272.748 36.7697 273.239 37.4447C273.731 38.1203 273.995 38.4579 274.033 38.4579H274.07V37.9328C274.069 37.5947 274.069 37.1443 274.031 36.581C273.993 36.0177 273.993 35.3415 273.992 34.5912C273.992 33.8397 273.992 33.0512 273.991 32.2256L273.98 14.5408L275.415 14.5397Z" fill="#020203"/>
<path d="M305.047 35.9985L304.971 36.1114C304.708 36.4872 304.293 36.9758 303.727 37.5767C303.162 38.1782 302.444 38.7786 301.539 39.3425C300.634 39.9064 299.578 40.3944 298.333 40.8083C297.087 41.1846 295.691 41.3734 294.106 41.3751C292.219 41.3757 290.445 41.0388 288.785 40.4008C287.123 39.7269 285.689 38.789 284.443 37.5883C283.197 36.387 282.214 34.9229 281.497 33.2347C280.779 31.5448 280.439 29.7061 280.437 27.7157C280.436 25.7259 280.812 23.8854 281.529 22.1955C282.245 20.505 283.225 19.0415 284.469 17.8385C285.714 16.6366 287.185 15.6964 288.845 15.0196C290.505 14.3428 292.279 13.966 294.166 14.0024C296.996 14.0754 299.412 14.7886 301.451 16.0252C303.488 17.2636 305.075 18.8765 306.208 20.8669L304.735 21.2426C303.678 19.4404 302.244 18.0145 300.394 16.9648C298.544 15.9135 296.469 15.3901 294.167 15.3913C292.468 15.393 290.883 15.6935 289.412 16.2956C287.94 16.8971 286.658 17.7232 285.564 18.8134C284.469 19.9024 283.603 21.1789 282.962 22.6824C282.322 24.1842 282.021 25.8359 282.022 27.6757C282.023 29.478 282.326 31.1297 282.969 32.6314C283.612 34.1332 284.48 35.4098 285.576 36.497C286.67 37.5854 287.953 38.4104 289.426 39.0102C290.898 39.6105 292.483 39.9098 294.181 39.9081C295.578 39.9075 296.898 39.7182 298.106 39.3431C299.312 38.9667 300.407 38.4781 301.351 37.876C302.293 37.2745 303.086 36.6371 303.726 35.9603C304.368 35.2847 304.82 34.6456 305.083 34.0446L305.08 29.126L296.477 29.1318L296.476 27.8552L306.439 27.8488L306.447 40.8396L305.088 40.8402L305.086 38.5499C305.086 37.9119 305.086 37.4233 305.086 37.0481C305.086 36.673 305.086 36.4102 305.085 36.2596V35.9974H305.047V35.9985Z" fill="#020203"/>
<path d="M328.664 39.4015L328.664 40.7904L312.211 40.8002L312.195 14.5177L313.629 14.5171L313.644 39.4108L328.664 39.4015Z" fill="#020203"/>
<path d="M347.348 14.4968L337.053 27.2317L337.062 40.7851L335.628 40.7857L335.62 27.2322L325.309 14.5101L327.045 14.5084L334.598 23.8536C334.749 24.0417 334.939 24.2658 335.128 24.5286C335.316 24.7909 335.505 25.0166 335.693 25.2419C335.883 25.4671 336.033 25.6552 336.147 25.8052L336.336 26.0298H336.373L336.562 25.8046C336.676 25.6546 336.827 25.4665 337.014 25.2413C337.204 25.0161 337.392 24.7909 337.581 24.5274C337.77 24.2652 337.957 24.0394 338.108 23.8512L345.612 14.498L347.348 14.4968Z" fill="#020203"/>
<path d="M26.004 25.8548C17.6668 34.1501 9.32881 42.4447 0.992295 50.7407C-0.123992 51.8513 -0.294421 52.9788 0.503445 53.9253C1.38815 54.9747 2.73638 54.9794 3.81359 53.9123C6.71521 51.0373 9.60924 48.1544 12.5047 45.2732C26.3612 31.4864 40.2172 17.6992 54.0729 3.912C55.1534 2.83666 55.2956 1.64899 54.4558 0.724496C53.562 -0.259764 52.2474 -0.241404 51.1956 0.800098C48.4481 3.51959 45.7107 6.24881 42.9701 8.97514C37.3145 14.6013 31.6593 20.2283 26.004 25.8548Z" fill="#00B3A4"/>
<path d="M47.7369 37.4923C44.3446 40.8674 41.0999 44.0956 37.8553 47.3238C36.6891 48.4841 35.521 49.6426 34.3573 50.8054C33.2385 51.9236 33.1267 53.2117 34.0639 54.1243C34.9772 55.0142 36.2501 54.8983 37.3393 53.8154C41.5588 49.6206 45.7757 45.4229 49.9937 41.2267C50.1978 41.0236 50.4019 40.8206 50.7308 40.4933C50.7489 40.9761 50.7691 41.2645 50.7691 41.5532C50.7702 45.136 50.7774 48.7188 50.7615 52.3012C50.7568 53.3348 51.1317 54.1254 52.1043 54.5343C53.5521 55.1431 54.9824 54.1063 54.9922 52.429C55.011 49.2019 54.9965 45.9748 54.9958 42.7477C54.9955 40.3684 55.0034 37.9891 54.9915 35.6095C54.9839 34.0863 54.1705 33.2669 52.6547 33.2648C47.0468 33.2572 41.4393 33.2576 35.8315 33.2633C34.3762 33.2648 33.4379 34.1288 33.4618 35.4064C33.4846 36.6251 34.4391 37.4599 35.8474 37.4628C39.4485 37.4693 43.0496 37.4642 46.6506 37.4657C46.9448 37.4657 47.239 37.4797 47.7369 37.4923Z" fill="#00B3A4"/>
<path d="M14.1654 4.37915C13.5477 4.99368 12.9304 5.60785 12.3127 6.22239C8.64001 9.87502 4.9673 13.5277 1.29495 17.1803C1.10064 17.3736 0.903431 17.5644 0.715273 17.7635C-0.198744 18.7305 -0.240356 19.9948 0.611062 20.848C1.46139 21.7005 2.76041 21.6786 3.70663 20.7566C5.06101 19.4368 6.39224 18.0936 7.73287 16.7602C10.7253 13.784 13.7178 10.8074 16.7102 7.83126C16.8633 7.67934 17.016 7.52705 17.3148 7.23005C17.3261 7.67682 17.3391 7.9569 17.3391 8.23663C17.3402 11.8997 17.3322 15.5628 17.3434 19.2258C17.3471 20.4178 18.1474 21.3171 19.2435 21.4255C20.3355 21.5335 21.3223 20.8074 21.5235 19.7306C21.568 19.4915 21.5636 19.2413 21.564 18.9962C21.5654 13.501 21.5661 8.00622 21.5625 2.51179C21.5614 0.771876 20.7969 0.0104603 19.0521 0.00938028C13.5292 0.00614021 8.00678 0.0144204 2.48396 2.00853e-05C1.56524 -0.00249997 0.789089 0.231505 0.307475 1.04872C-0.538877 2.48587 0.492739 4.19195 2.23574 4.20239C5.8625 4.22399 9.48926 4.21139 13.116 4.20599C13.4413 4.20563 13.7666 4.15702 14.0919 4.1311C14.1165 4.21355 14.1411 4.29635 14.1654 4.37915Z" fill="#00B3A4"/>
</svg>
