<?xml version="1.0" encoding="utf-8"?>
<!-- Generator: Adobe Illustrator 26.0.3, SVG Export Plug-In . SVG Version: 6.00 Build 0)  -->
<svg version="1.0" id="katman_1" xmlns="http://www.w3.org/2000/svg" xmlns:xlink="http://www.w3.org/1999/xlink" x="0px" y="0px"
	 viewBox="0 0 600 450" style="enable-background:new 0 0 600 450;" xml:space="preserve">
<style type="text/css">
	.st0{fill-rule:evenodd;clip-rule:evenodd;fill:url(#SVGID_1_);}
</style>
<linearGradient id="SVGID_1_" gradientUnits="userSpaceOnUse" x1="-648.489" y1="6874.6123" x2="-646.6245" y2="6874.5317" gradientTransform="matrix(264.3549 0 0 -58.8157 171469.875 404558.7188)">
	<stop  offset="0" style="stop-color:#654092"/>
	<stop  offset="0.6442" style="stop-color:#E31D7D"/>
	<stop  offset="1" style="stop-color:#E5281F"/>
</linearGradient>
<path class="st0" d="M122.6,212.6l-9.4,19.7c7.7,1.5,15.2,3.9,22.3,7.2L122.6,212.6L122.6,212.6z M357.2,193
	c-18.4,0-33.3,14.5-33.3,32.4c0,17.8,15,32.3,33.3,32.3c18.4,0,33.4-14.5,33.4-32.3C390.5,207.5,375.6,193,357.2,193L357.2,193z
	 M194.9,179c5.9,0,11.2,3.4,13.7,8.6l26,54.8l25.8-54.8c2.5-5.3,7.8-8.7,13.7-8.7h13l-47.3,97.9h-10.4L182.1,179H194.9L194.9,179z
	 M357.2,173.9c15,0,28.2,5.1,38.2,14.7c10.2,9.7,15.9,22.7,15.9,36.7c0,14-5.7,27-16,36.5c-10.1,9.7-23.7,15-38.1,15
	c-14.6,0-27.9-5.2-38.2-15.1c-10.1-9.7-15.7-22.7-15.7-36.5c0-14,5.6-27.1,15.7-36.7C329.1,179,342.3,173.9,357.2,173.9L357.2,173.9
	z M458.8,179l52.6,61.9l-0.1-51.6c0-5.7,4.7-10.3,10.6-10.3h9.6v97.9h-4.3c-12.3,0-20.8-10.9-20.8-10.9L463.3,215l0.1,51.5
	c0,5.7-4.7,10.3-10.6,10.3h-9.6V179H458.8z M127.9,179l48.7,97.9h-22.8c-14.5-19.3-30.6-25.9-48.7-28.1l-10.2,19.6
	c-3.5,5.7-8.5,8.6-14.4,8.6H68.7l48.6-97.9H127.9z"/>
</svg>
