<?xml version="1.0" encoding="utf-8"?>
<!-- Generator: Adobe Illustrator 19.2.1, SVG Export Plug-In . SVG Version: 6.00 Build 0)  -->
<svg version="1.1" id="layer" xmlns="http://www.w3.org/2000/svg" xmlns:xlink="http://www.w3.org/1999/xlink" x="0px" y="0px"
	 viewBox="0 0 652 652" style="enable-background:new 0 0 652 652;" xml:space="preserve">
<path d="M21.5,293.6L21.5,293.6h32.3v2.6H24.1v23.1h25.7v2.6H24.1v25.1h-2.6V293.6z M80.1,346.9h32.5v-2.7H82.8v-22.7h23.7v-2.6
	H82.8v-22.7h28.3v-2.6h-31l0,0V346.9z M139.4,346.9h32.5v-2.7h-29.9v-22.7h23.7v-2.6h-23.7v-22.7h28.3v-2.6h-31l0,0V346.9z
	 M198.7,346.9H230v-2.7h-28.6v-50.6h-2.7l0,0V346.9z M272.4,347.3c12.6,0,20.5-8.4,20.5-22.2v-31.6h-6.5v31.2
	c0,10.2-5.8,16.3-14,16.3c-8.5,0-13.9-6.5-13.9-16.3v-31.2H252v31.6l0,0C252,339.1,260.3,347.3,272.4,347.3z M360.3,293.6v42.5h-0.2
	l-29.8-42.5h-6.4v53.3h6.5v-42.1h0.1l29.5,42.1h6.7v-53.3l0,0H360.3z M398.4,346.9h6.6v-53.3h-6.6l0,0V346.9z M488.1,343.3l-6.7-6.1
	c3.3-4.5,5.3-10.2,5.3-17c0-16.3-11.4-27.2-26.3-27.2c-15.8,0-26.5,11.8-26.5,27.2c0,15.4,10.7,27.1,26.5,27.1
	c6.5,0,12.4-2.1,16.9-5.8l6.9,6.5l0,0L488.1,343.3z M460.5,341c-11.4,0-19.8-8.9-19.8-20.8c0-11.9,8.5-20.9,19.8-20.9
	c11.4,0,19.6,9,19.6,20.9c0,4.7-1.3,9-3.7,12.5L470,327l-3.7,4.5l6,5.5l0,0C469.1,339.6,465.1,341,460.5,341z M536.1,347.3
	c12.5,0,20.5-8.4,20.5-22.2v-31.6h-6.5v31.2c0,10.2-5.8,16.3-14.1,16.3c-8.5,0-13.9-6.5-13.9-16.3v-31.2h-6.5v31.6l0,0
	C515.7,339.1,524.1,347.3,536.1,347.3z M587.6,346.9h33.9v-6.1h-27.3v-17.4h21.2v-6.1h-21.2v-17.8h25.7v-6h-32.3l0,0V346.9z"/>
</svg>
