<svg xmlns="http://www.w3.org/2000/svg" width="300" height="300" viewBox="0 0 300 300" fill="none"><path d="M136.7 65C89.9 65 51.9 102.9 51.9 149.8C51.9 196.6 89.8 234.6 136.7 234.6C183.5 234.6 221.5 196.7 221.5 149.8C221.5 103 183.5 65 136.7 65Z" fill="#FFF6E1"></path><path d="M13 164.4C13 130.5 40.5 103 74.4 103C108.3 103 135.8 130.5 135.8 164.4C135.8 198.3 108.3 225.8 74.4 225.8C40.5 225.8 13 198.3 13 164.4Z" fill="#00245E"></path><path d="M53.7 191.7V186.2C53.7 185.8 53.8999 185.5 54.2999 185.3C58.7999 183.2 63.4999 178.4 63.4999 172.7C63.4999 171.5 63.4 170.4 63.2 169.2H55.5999C55.0999 169.2 54.5999 168.8 54.5999 168.2V161.2C54.5999 160.7 54.9999 160.2 55.5999 160.2H60.3999C60.9999 160.2 61.4999 159.7 61.3999 159.1C61.0999 157.2 60.8999 155.1 60.8999 153.2C60.8999 142.2 68.8999 135 80.5999 135C84.8999 135 88.2 135.8 90.2 136.8C90.6 137 90.8 137.4 90.7 137.9L88.8999 146C88.7999 146.6 88.0999 146.9 87.5999 146.7C85.9999 146.1 83.8999 145.7 81.3999 145.7C75.1999 145.7 73.2999 149.7 73.2999 153.9C73.2999 155.9 73.4999 157.7 73.8999 159.6C73.9999 160.1 74.3999 160.4 74.8999 160.4H85.0999C85.5999 160.4 86.0999 160.8 86.0999 161.4V168.4C86.0999 168.9 85.6999 169.4 85.0999 169.4H76.2999C75.7999 169.4 75.2999 169.8 75.2999 170.4C75.2999 172.2 75.1 173.9 74.5 175.6C73.7 177.8 72.3 180 70.2 181.8V182H92.3999C92.8999 182 93.3999 182.4 93.3999 183V191.8C93.3999 192.3 92.9999 192.8 92.3999 192.8H54.5999C54.0999 192.7 53.7 192.2 53.7 191.7Z" fill="#FFD16B"></path><path d="M241.6 134H157.7C148.3 134 140.6 126.3 140.6 116.9C140.6 107.5 148.3 99.8 157.7 99.8H241.6C251.1 99.8 258.7 107.5 258.7 116.9C258.7 126.4 251 134 241.6 134Z" fill="#00B2A3"></path><path d="M246.2 228.3H162.3C152.9 228.3 145.2 220.6 145.2 211.2C145.2 201.7 152.9 194.1 162.3 194.1H246.2C255.7 194.1 263.3 201.8 263.3 211.2C263.3 220.7 255.7 228.3 246.2 228.3Z" fill="#00B2A3"></path><path d="M185 147.1H268.9C278.3 147.1 286 154.8 286 164.2C286 173.7 278.3 181.3 268.9 181.3H185C175.5 181.3 167.9 173.6 167.9 164.2C167.9 154.7 175.6 147.1 185 147.1Z" fill="#00B2A3"></path></svg>