<svg xmlns="http://www.w3.org/2000/svg" width="300" height="300" viewBox="0 0 300 300" fill="none"><path d="M117.8 37C71 37 33 74.9 33 121.8C33 168.6 70.9 206.6 117.8 206.6C164.6 206.6 202.6 168.7 202.6 121.8C202.6 75 164.7 37 117.8 37Z" fill="#FFF6E1"></path><path d="M267.2 93.1C267.2 105.5 257.1 115.6 244.7 115.6C232.3 115.6 222.2 105.5 222.2 93.1C222.2 80.7 232.3 70.6 244.7 70.6C257.1 70.6 267.2 80.7 267.2 93.1Z" fill="#00245E"></path><path d="M198.9 106.6H143.4C136 106.6 129.9 100.6 129.9 93.1C129.9 85.7 135.9 79.6 143.4 79.6H198.9C206.3 79.6 212.4 85.6 212.4 93.1C212.4 100.5 206.4 106.6 198.9 106.6Z" fill="#00B2A3"></path><path d="M73.6 92.6C73.6 80.2 83.7 70.1 96.1 70.1C108.5 70.1 118.6 80.2 118.6 92.6C118.6 105 108.5 115.1 96.1 115.1C83.7 115.1 73.6 105 73.6 92.6Z" fill="#FFD16B"></path><path d="M267.2 241.3C267.2 253.7 257.1 263.8 244.7 263.8C232.3 263.8 222.2 253.7 222.2 241.3C222.2 228.9 232.3 218.8 244.7 218.8C257.1 218.8 267.2 228.9 267.2 241.3Z" fill="#00245E"></path><path d="M198.9 254.8H143.4C136 254.8 129.9 248.8 129.9 241.3C129.9 233.9 135.9 227.8 143.4 227.8H198.9C206.3 227.8 212.4 233.8 212.4 241.3C212.4 248.7 206.4 254.8 198.9 254.8Z" fill="#00B2A3"></path><path d="M73.6 240.8C73.6 228.4 83.7 218.3 96.1 218.3C108.5 218.3 118.6 228.4 118.6 240.8C118.6 253.2 108.5 263.3 96.1 263.3C83.7 263.3 73.6 253.2 73.6 240.8Z" fill="#00245E"></path><path d="M258.6 138.4V193.9C258.6 201.3 252.6 207.4 245.1 207.4C237.7 207.4 231.6 201.4 231.6 193.9V138.4C231.6 131 237.6 124.9 245.1 124.9C252.6 124.9 258.6 131 258.6 138.4Z" fill="#00B2A3"></path><path d="M108.3 138.4V193.9C108.3 201.3 102.3 207.4 94.7999 207.4C87.3999 207.4 81.2999 201.4 81.2999 193.9V138.4C81.2999 131 87.2999 124.9 94.7999 124.9C102.3 124.9 108.3 131 108.3 138.4Z" fill="#00B2A3"></path></svg>